<?xml version="1.0" encoding="utf-8"?>
<!-- Generator: Adobe Illustrator 24.0.3, SVG Export Plug-In . SVG Version: 6.00 Build 0)  -->
<svg version="1.1" id="Layer_1" xmlns="http://www.w3.org/2000/svg" xmlns:xlink="http://www.w3.org/1999/xlink" x="0px" y="0px"
	 viewBox="0 0 32 32" style="enable-background:new 0 0 32 32;" xml:space="preserve">
<style type="text/css">
	.st0{fill:#555555;}
	.st1{fill:#FFFFFF;}
</style>
<circle class="st0" cx="16" cy="16" r="16"/>
<g>
	<path class="st1" d="M9.3,25.9c-0.2,0-0.4,0-0.6-0.1c-0.3,0-0.5-0.1-0.8-0.3c-0.3-0.1-0.5-0.4-0.7-0.7s-0.3-0.7-0.3-1.2
		c0-0.4,0.1-1,0.2-1.6c0.2-0.7,0.4-1.7,0.8-2.9c0.3-1,0.6-1.9,0.9-2.9c0.3-1,0.5-1.9,0.7-3c0.2-1,0.3-2.1,0.3-3.3
		c0-0.7,0-1.2-0.1-1.7S9.5,7.4,9.3,7.2C9.1,7,8.8,6.8,8.4,6.8c-0.4,0-0.7,0.1-1,0.3C7,7.4,6.8,7.7,6.6,8C6.4,8.4,6.2,8.8,6.1,9.2
		C6,9.6,6,10.1,6,10.5c0,0.7,0.1,1.3,0.4,1.8c-0.8,0-1.4-0.2-1.8-0.6c-0.4-0.4-0.5-0.9-0.5-1.4c0-0.5,0.1-1,0.4-1.5
		c0.2-0.5,0.6-1,1-1.5S6.4,6.5,7,6.2C7.6,6,8.2,5.8,8.9,5.8c1.1,0,2,0.4,2.6,1.2c0.6,0.8,0.9,2,0.9,3.5c0,1.1-0.2,2.3-0.5,3.6
		c-0.3,1.2-0.7,2.6-1.2,4c-0.2,0.5-0.4,1.1-0.6,1.8s-0.4,1.3-0.6,2s-0.3,1.3-0.3,2c0,0.3,0,0.5,0.1,0.7c0.1,0.1,0.2,0.2,0.4,0.2
		c0.4,0,0.9-0.2,1.4-0.6s1-0.9,1.5-1.5s1-1.4,1.5-2.2c0.5-0.8,0.9-1.6,1.3-2.4c0.4-0.8,0.7-1.6,1-2.4c0.3-0.8,0.4-1.4,0.5-2
		c0.6,0,1.1,0.2,1.5,0.5s0.5,0.7,0.5,1c0,0.2-0.1,0.4-0.2,0.8c-0.1,0.4-0.4,1-0.7,1.8c-0.3,0.6-0.5,1.3-0.8,2
		c-0.3,0.7-0.5,1.4-0.7,2.1c-0.2,0.7-0.3,1.3-0.3,1.9c0,0.3,0,0.6,0.1,0.7c0.1,0.1,0.3,0.2,0.5,0.2c0.5,0,1-0.2,1.6-0.7
		c0.6-0.5,1.2-1.1,1.9-1.9s1.3-1.7,1.9-2.7c0.6-1,1.2-2,1.7-3.1c0.5-1.1,0.9-2.1,1.2-3.1c0.3-1,0.4-2,0.4-2.8c0-0.9-0.2-1.6-0.5-1.9
		c-0.3-0.4-0.7-0.7-1.2-0.8c0.3-0.5,0.6-0.8,1-1.1c0.3-0.2,0.6-0.3,0.9-0.3c0.4,0,0.8,0.2,1.2,0.7c0.4,0.5,0.6,1.3,0.6,2.3
		c0,0.9-0.2,1.9-0.5,3c-0.3,1.1-0.8,2.3-1.4,3.6c-0.6,1.2-1.3,2.4-2,3.6c-0.8,1.2-1.6,2.2-2.4,3.2s-1.7,1.7-2.6,2.2
		s-1.7,0.8-2.5,0.8c-0.4,0-0.8-0.1-1.2-0.3c-0.3-0.2-0.6-0.4-0.8-0.7S14,24.2,14,23.7c0-0.2,0-0.4,0.1-0.6s0.1-0.4,0.2-0.6
		c-0.8,1-1.6,1.8-2.4,2.5C11,25.6,10.1,25.9,9.3,25.9z"/>
</g>
</svg>
